<svg width="712" height="146" viewBox="0 0 712 146" fill="none" xmlns="http://www.w3.org/2000/svg">
<path d="M42.728 85.468C42.9893 114.999 45.2107 133.553 49.392 141.132H0.98C6.076 132.377 8.55867 114.215 8.428 86.644C8.29733 70.4413 6.86 56.46 4.116 44.7C2.548 36.5987 2.22133 29.7387 3.136 24.12C4.18133 18.5013 6.468 13.9933 9.996 10.596C13.6547 7.06799 17.836 4.58533 22.54 3.148C27.3747 1.57999 32.732 0.861323 38.612 0.991988C49.4573 1.38399 56.7093 5.63066 60.368 13.732C63.2427 20.004 62.9813 25.9493 59.584 31.568C56.84 36.4027 52.7893 38.82 47.432 38.82C47.432 34.7693 46.648 30.8493 45.08 27.06C43.512 23.2707 41.4867 20.2 39.004 17.848C36.5213 15.496 33.8427 13.4707 30.968 11.772C28.224 9.94266 25.676 9.02799 23.324 9.02799C20.972 9.02799 19.012 9.48532 17.444 10.4C14.7 12.4907 14.2427 16.3453 16.072 21.964C18.032 27.452 21.6907 32.352 27.048 36.664C29.008 38.232 30.968 39.5387 32.928 40.584C34.888 41.6293 36.456 42.4787 37.632 43.132C38.808 43.6547 40.6373 44.0467 43.12 44.308C45.7333 44.5693 47.3667 44.7653 48.02 44.896C48.804 44.896 50.8947 44.896 54.292 44.896C57.82 44.7653 59.976 44.7 60.76 44.7V49.992C52.7893 49.992 47.7587 52.2133 45.668 56.656C43.708 60.968 42.728 70.572 42.728 85.468ZM58.6484 76.06C61.9151 63.124 69.0364 53.716 80.0124 47.836C90.9884 41.956 102.618 41.3027 114.9 45.876C127.314 50.4493 136.722 58.8773 143.124 71.16C149.527 83.4427 151.095 96.052 147.828 108.988C144.562 121.793 137.44 131.136 126.464 137.016C115.488 142.896 103.794 143.549 91.3804 138.976C79.0977 134.403 69.7551 125.975 63.3524 113.692C56.9497 101.409 55.3817 88.8653 58.6484 76.06ZM112.94 87.232C107.452 76.3867 101.768 67.828 95.8884 61.556C90.1391 55.284 85.8924 52.8667 83.1484 54.304C80.4044 55.7413 80.0124 60.6413 81.9724 69.004C83.9324 77.236 87.7217 86.7747 93.3404 97.62C98.9591 108.335 104.643 116.893 110.392 123.296C116.272 129.568 120.584 131.985 123.328 130.548C125.942 129.111 126.268 124.211 124.308 115.848C122.479 107.485 118.69 97.9467 112.94 87.232ZM193.552 71.356C193.029 74.6227 192.637 79.392 192.376 85.664C192.114 91.8053 192.049 98.3387 192.18 105.264C192.31 112.059 192.833 118.853 193.748 125.648C194.662 132.312 195.838 137.473 197.276 141.132H152.784C155.789 134.599 157.618 124.864 158.272 111.928C159.056 98.992 158.86 86.9707 157.684 75.864C156.508 64.6267 154.874 57.1133 152.784 53.324C166.504 52.0173 179.636 49.1427 192.18 44.7V54.892C193.094 53.4547 194.074 52.2133 195.12 51.168C200.477 45.9413 206.945 43.3933 214.524 43.524C221.841 43.7853 227.917 46.9867 232.752 53.128C237.717 59.2693 240.265 66.26 240.396 74.1C240.396 79.8493 239.089 84.8147 236.476 88.996C233.993 93.0467 230.792 95.9867 226.872 97.816C223.082 99.5147 218.901 100.299 214.328 100.168C209.885 99.9067 205.769 98.6653 201.98 96.444C205.377 93.9613 207.664 89.8453 208.84 84.096C210.146 78.216 210.146 72.728 208.84 67.632C207.664 62.536 205.573 59.7267 202.568 59.204C198.256 58.2893 195.25 62.34 193.552 71.356ZM284.055 96.052C284.055 117.873 285.753 132.9 289.151 141.132H244.659C246.88 136.167 248.448 129.176 249.363 120.16C250.408 111.144 250.8 102.259 250.539 93.504C250.277 84.6187 249.624 76.3867 248.579 68.808C247.533 61.2293 246.227 56.068 244.659 53.324C258.248 52.0173 271.38 49.1427 284.055 44.7V79.784C288.889 62.0133 295.227 50.776 303.067 46.072C305.549 44.6347 308.293 43.72 311.299 43.328C314.304 42.8053 317.375 43.0013 320.511 43.916C323.777 44.7 326.717 46.2027 329.331 48.424C331.944 50.5147 334.1 53.7813 335.799 58.224C337.497 62.536 338.347 67.6973 338.347 73.708C338.347 74.492 338.347 75.9947 338.347 78.216C338.347 80.3067 338.347 81.94 338.347 83.116C340.699 73.708 343.377 65.9333 346.383 59.792C349.519 53.52 353.504 48.9467 358.339 46.072C360.691 44.6347 363.369 43.72 366.375 43.328C369.38 42.8053 372.451 43.0013 375.587 43.916C378.853 44.7 381.793 46.2027 384.407 48.424C387.02 50.5147 389.176 53.7813 390.875 58.224C392.573 62.536 393.423 67.6973 393.423 73.708C393.423 74.1 393.423 76.3867 393.423 80.568C393.423 84.7493 393.423 88.1467 393.423 90.76C393.423 93.2427 393.423 96.9013 393.423 101.736C393.553 106.44 393.749 110.491 394.011 113.888C394.272 117.285 394.533 120.879 394.795 124.668C395.187 128.457 395.709 131.789 396.363 134.664C397.016 137.408 397.735 139.564 398.519 141.132H355.791C357.489 138.78 358.861 131.528 359.907 119.376C361.083 107.093 361.213 95.1373 360.299 83.508C359.384 71.748 357.228 65.7373 353.831 65.476C351.087 65.3453 348.539 67.7627 346.187 72.728C343.965 77.6933 341.875 84.4227 339.915 92.916C339.392 95.0067 338.869 97.228 338.347 99.58C338.739 121.532 340.437 135.383 343.443 141.132H300.519C301.825 139.433 302.936 134.599 303.851 126.628C304.765 118.527 305.353 110.033 305.615 101.148C305.876 92.132 305.419 84.0307 304.243 76.844C303.197 69.5267 301.368 65.7373 298.755 65.476C295.88 65.3453 293.332 67.7627 291.111 72.728C288.889 77.6933 286.733 84.4227 284.643 92.916C284.512 93.8307 284.316 94.876 284.055 96.052ZM445.31 141.132H402.582C405.457 134.599 407.221 126.955 407.874 118.2C408.528 109.315 408.266 101.344 407.09 94.288C406.045 87.1013 404.542 81.548 402.582 77.628C410.553 77.628 418.393 76.7787 426.102 75.08C433.942 73.3813 440.345 70.8333 445.31 67.436C442.436 74.7533 440.802 86.3173 440.41 102.128C440.149 117.939 441.782 130.94 445.31 141.132ZM408.854 62.536C404.804 59.4 402.778 55.6107 402.778 51.168C402.778 46.7253 404.804 42.936 408.854 39.8C413.036 36.664 418.066 35.096 423.946 35.096C429.826 35.096 434.857 36.664 439.038 39.8C443.22 42.936 445.31 46.7253 445.31 51.168C445.31 55.6107 443.22 59.4 439.038 62.536C434.857 65.5413 429.826 67.044 423.946 67.044C418.066 67.044 413.036 65.5413 408.854 62.536ZM449.062 44.7C456.118 43.3933 463.566 41.2373 471.406 38.232C479.377 35.096 485.322 31.96 489.242 28.824V44.7H506.49V51.364C504.53 51.364 501.59 51.364 497.67 51.364C493.75 51.364 490.875 51.364 489.046 51.364C489.177 87.036 489.307 108.335 489.438 115.26C489.438 122.185 490.026 127.412 491.202 130.94C492.509 134.468 494.599 135.971 497.474 135.448C501.394 134.141 502.897 129.764 501.982 122.316C501.067 114.737 498.454 108.4 494.142 103.304C501.721 99.5147 507.47 100.429 511.39 106.048C515.049 111.275 515.637 117.547 513.154 124.864C510.279 133.619 504.073 139.237 494.534 141.72C491.529 142.504 488.327 142.961 484.93 143.092C464.677 143.092 454.55 131.855 454.55 109.38C454.55 105.852 454.55 101.148 454.55 95.268C454.681 89.2573 454.681 85.0107 454.55 82.528C454.55 80.0453 454.485 76.7133 454.354 72.532C454.354 68.3507 454.223 65.28 453.962 63.32C453.831 61.36 453.57 59.0733 453.178 56.46C452.786 53.8467 452.263 51.6907 451.61 49.992C450.957 48.1627 450.107 46.3987 449.062 44.7ZM586.806 124.864C587.067 116.24 582.951 103.696 574.458 87.232C568.447 75.864 562.436 67.044 556.426 60.772C550.415 54.5 545.58 52.932 541.922 56.068C538.916 58.6813 538.132 62.8627 539.57 68.612C541.138 74.3613 544.666 78.804 550.154 81.94C549.631 85.468 548.194 88.408 545.842 90.76C543.62 93.112 540.942 94.68 537.806 95.464C531.534 96.9013 526.307 95.464 522.126 91.152C517.944 86.7093 516.246 81.156 517.03 74.492C517.552 69.6573 519.512 65.1493 522.91 60.968C526.438 56.7867 530.946 53.1933 536.434 50.188C545.188 45.3533 553.747 43.0667 562.11 43.328C570.603 43.5893 578.639 46.2027 586.218 51.168C593.927 56.0027 600.003 62.6667 604.446 71.16C606.406 74.9493 607.843 79.0653 608.758 83.508C609.803 87.9507 610.13 92.3933 609.738 96.836C609.476 101.279 608.496 105.46 606.798 109.38C605.23 113.169 602.747 116.501 599.35 119.376C595.952 122.12 591.771 123.949 586.806 124.864ZM524.674 113.692C521.276 107.159 519.251 100.168 518.598 92.72C524.216 99.776 530.88 102.455 538.59 100.756C544.078 99.4493 548.39 96.1827 551.526 90.956C552.571 93.0467 553.682 95.1373 554.858 97.228C559.17 105.46 563.678 112.059 568.382 117.024C573.086 121.989 578.247 125.452 583.866 127.412C589.615 129.372 595.887 128.98 602.682 126.236C609.476 123.361 616.598 118.135 624.046 110.556C636.459 98.1427 646.782 83.9653 655.014 68.024C655.536 67.24 656.386 65.672 657.562 63.32C658.738 60.968 659.587 59.2693 660.11 58.224C660.763 57.048 661.678 55.6107 662.854 53.912C664.03 52.0827 665.271 50.58 666.578 49.404C667.884 48.228 669.387 47.1173 671.086 46.072C673.438 44.6347 676.116 43.72 679.122 43.328C682.127 42.8053 685.198 43.0013 688.334 43.916C691.6 44.7 694.54 46.2027 697.154 48.424C699.767 50.5147 701.923 53.7813 703.622 58.224C705.32 62.536 706.17 67.6973 706.17 73.708C706.17 74.6227 706.17 77.3667 706.17 81.94C706.17 86.5133 706.17 90.1067 706.17 92.72C706.17 95.2027 706.17 98.796 706.17 103.5C706.3 108.073 706.496 111.993 706.758 115.26C707.019 118.396 707.28 121.793 707.542 125.452C707.934 128.98 708.456 132.116 709.11 134.86C709.763 137.473 710.482 139.564 711.266 141.132H668.538C670.106 138.78 671.478 131.528 672.654 119.376C673.83 107.093 673.96 95.1373 673.046 83.508C672.131 71.748 669.975 65.7373 666.578 65.476C664.356 65.3453 662.2 67.1093 660.11 70.768C659.456 72.0747 658.803 73.316 658.15 74.492C656.32 78.804 654.491 84.9453 652.662 92.916C652.4 93.9613 652.139 95.0067 651.878 96.052C651.878 117.873 653.576 132.9 656.974 141.132H612.678C614.376 137.212 615.683 132.051 616.598 125.648C609.019 130.875 600.983 134.86 592.49 137.604C583.996 140.348 575.503 141.655 567.01 141.524C558.647 141.393 550.676 138.976 543.098 134.272C535.65 129.568 529.508 122.708 524.674 113.692ZM618.362 108.204C618.754 96.9667 618.362 85.9253 617.186 75.08C616.01 64.2347 614.507 56.9827 612.678 53.324C626.267 52.0173 639.334 49.1427 651.878 44.7V62.144C640.64 83.4427 629.468 98.796 618.362 108.204Z" fill="white"/>
</svg>
